/* XPM */
static char* Xpm01RG[] = {
"8 8 3 1",
"  c #FF0000",
"! c #FFFF00",
"# c #FF0000",
"!!! #!!!",
"!! !#!!!",
"!!!!#!!!",
"!!!!#!!!",
"!!!!#!!!",
"!!!!#!!!",
"!!!!#!!!",
"!!!  #!!"};