/* XPM */
static char* Xpm03AB[] = {
"8 8 2 1",
"  c #0000FF",
"! c #FFFFFF",
"!!   !!!",
"! !!! !!",
"!!!!! !!",
"!!!! !!!",
"!!!! !!!",
"!!!!! !!",
"! !!! !!",
"!!   !!!"};