/* XPM */
static char* Xpm06RG[] = {
"8 8 2 1",
"  c #FF0000",
"! c #FFFF00",
"!!!   !!",
"!! !!! !",
"!! !!!!!",
"!!    !!",
"!! !!! !",
"!! !!! !",
"!! !!! !",
"!!!   !!"};