/* XPM */
static char* MA_-_W[] = {
"8 8 3 1",
"  c none",
". c #000000",
"W c #DDDDDD",
"        ",
"     ...",
"    .WW.",
"   ..WW.",
"  ......",
" ....WW.",
" ....WW.",
" ......."};
