/* XPM */
static char* MA___W[] = {
"8 8 2 1",
"  c none",
". c #000000",
"        ",
"     ...",
"    ....",
"   .....",
"  ......",
" .......",
" .......",
" ......."};
