/* XPM */
static char* MA___S[] = {
"8 8 2 1",
"  c None",
". c #000000",
"        ",
" .......",
" .......",
" .......",
"  ......",
"   .....",
"    ....",
"     ..."};
