/* XPM */
static char* MA___N[] = {
"8 8 2 1",
"  c None",
". c #000000",
"        ",
" ...    ",
" ....   ",
" .....  ",
" ...... ",
" .......",
" .......",
" ......."};
