/* XPM */
static char* MA_|_N[] = {
"8 8 3 1",
"  c None",
". c #000000",
"W c #DDDDDD",
"        ",
" ...    ",
" .WW.   ",
" .WW..  ",
" ...... ",
" .WW....",
" .WW....",
" ......."};
