/* XPM */
static char* NF_b_W[] = {
"12 7 4 1",
"  c none",
". c #000000",
"B c #666666",
"X c #DDDDDD",
"            ",
"            ",
".......... .",
".X....BBB. .",
"..X...BBB...",
"...X..BBB. .",
".......... ."};
