/* XPM */
static char* NF_g_S[] = {
"7 12 4 1",
"  c None",
". c #000000",
"G c #00E171",
"X c #DDDDDD",
"  .....",
"    .  ",
"  .....",
"  .GGG.",
"  .GGG.",
"  .GGG.",
"  .....",
"  .....",
"  ...X.",
"  ..X..",
"  .X...",
"  ....."};
