/* XPM */
static char* NF_r_S[] = {
"7 12 3 1",
"  c None",
". c #000000",
"R c #FF0000",
"  .....",
"    .  ",
"  .....",
"  .RRR.",
"  .RRR.",
"  .RRR.",
"  .....",
"  .....",
"  .....",
"  .....",
"  .....",
"  ....."};
