/* XPM */
static char* NF_r_N[] = {
"7 18 3 1",
"  c None",
". c #000000",
"R c #FF0000",
"       ",
"       ",
"       ",
"       ",
"       ",
"       ",
"  .....",
"  .....",
"  .....",
"  .....",
"  .....",
"  .....",
"  .RRR.",
"  .RRR.",
"  .RRR.",
"  .....",
"    .  ",
"  ....."};
