/* XPM */
static char* NF_r_E[] = {
"12 7 3 1",
"  c none",
". c #000000",
"R c #FF0000",
"            ",
"            ",
". ..........",
". .RRR......",
"...RRR......",
". .RRR......",
". .........."};
