/* XPM */
static char* NF_y_N[] = {
"7 18 4 1",
"  c None",
". c #000000",
"Y c #FFBB00",
"X c #DDDDDD",
"       ",
"       ",
"       ",
"       ",
"       ",
"       ",
"  .....",
"  ...X.",
"  ..X..",
"  .X...",
"  .....",
"  .....",
"  .YYY.",
"  .YYY.",
"  .YYY.",
"  .....",
"    .  ",
"  ....."};
