/* XPM */
static char* NN_bb_S[] = {
"7 12 3 1",
"  c None",
". c #000000",
"B c #666666",
"  .....",
"    .  ",
"   ... ",
"  .BBB.",
"  .BBB.",
"  .BBB.",
"   ... ",
"   ... ",
"  .BBB.",
"  .BBB.",
"  .BBB.",
"   ... "};
