/* XPM */
static char* NN_bb_W[] = {
"12 7 3 1",
"  c none",
". c #000000",
"B c #666666",
"            ",
"            ",
" ...  ...  .",
".BBB..BBB. .",
".BBB..BBB...",
".BBB..BBB. .",
" ...  ...  ."};
