/* XPM */
static char* NN_g_N[] = {
"7 9 3 1",
"  c None",
". c #000000",
"G c #00E171",
"   ... ",
"  .GGG.",
"  .GGG.",
"  .GGG.",
"   ... ",
"    .  ",
"    .  ",
"    .  ",
"  ....."};
