/* XPM */
static char* NN_r_E[] = {
"9 7 3 1",
"  c none",
". c #000000",
"R c #FF0000",
"         ",
"         ",
".    ... ",
".   .RRR.",
".....RRR.",
".   .RRR.",
".    ... "};
