/* XPM */
static char* NN_ry_S[] = {
"7 12 4 1",
"  c None",
". c #000000",
"R c #FF0000",
"Y c #FFBB00",
"  .....",
"    .  ",
"   ... ",
"  .YYY.",
"  .YYY.",
"  .YYY.",
"   ... ",
"   ... ",
"  .RRR.",
"  .RRR.",
"  .RRR.",
"   ... "};
