/* XPM */
static char* NN_ry_N[] = {
"7 18 4 1",
"  c None",
". c #000000",
"R c #FF0000",
"Y c #FFBB00",
"       ",
"       ",
"       ",
"       ",
"       ",
"       ",
"   ... ",
"  .RRR.",
"  .RRR.",
"  .RRR.",
"   ... ",
"   ... ",
"  .YYY.",
"  .YYY.",
"  .YYY.",
"   ... ",
"    .  ",
"  ....."};
