/* XPM */
static char* NN_ry_W[] = {
"12 7 4 1",
"  c none",
". c #000000",
"R c #FF0000",
"Y c #FFBB00",
"            ",
"            ",
" ...  ...  .",
".RRR..YYY. .",
".RRR..YYY...",
".RRR..YYY. .",
" ...  ...  ."};
