/* XPM */
static char* NN_yy_N[] = {
"7 18 3 1",
"  c None",
". c #000000",
"Y c #FFBB00",
"       ",
"       ",
"       ",
"       ",
"       ",
"       ",
"   ... ",
"  .YYY.",
"  .YYY.",
"  .YYY.",
"   ... ",
"   ... ",
"  .YYY.",
"  .YYY.",
"  .YYY.",
"   ... ",
"    .  ",
"  ....."};
