/* XPM */
static char* NN_yy_E[] = {
"12 7 3 1",
"  c none",
". c #000000",
"Y c #FFBB00",
"            ",
"            ",
".  ...  ... ",
". .YYY..YYY.",
"...YYY..YYY.",
". .YYY..YYY.",
".  ...  ... "};
