/* XPM */
static char* NQ_bg_E[] = {
"12 7 4 1",
"  c none",
". c #000000",
"B c #666666",
"G c #00E171",
"            ",
"            ",
". ..........",
". .GGG..BBB.",
"...GGG..BBB.",
". .GGG..BBB.",
". .........."};
