/* XPM */
static char* NQ_b_S[] = {
"7 9 3 1",
"  c None",
". c #000000",
"B c #666666",
"  .....",
"    .  ",
"    .  ",
"    .  ",
"  .....",
"  .BBB.",
"  .BBB.",
"  .BBB.",
"  ....."};
