/* XPM */
static char* NQ_r_N[] = {
"7 9 3 1",
"  c None",
". c #000000",
"R c #FF0000",
"  .....",
"  .RRR.",
"  .RRR.",
"  .RRR.",
"  .....",
"    .  ",
"    .  ",
"    .  ",
"  ....."};
