/* XPM */
static char* NQ_rg_W[] = {
"12 7 4 1",
"  c none",
". c #000000",
"R c #FF0000",
"G c #00E171",
"            ",
"            ",
".......... .",
".RRR..GGG. .",
".RRR..GGG...",
".RRR..GGG. .",
".......... ."};
