/* XPM */
static char* NQ_yg_N[] = {
"7 18 4 1",
"  c None",
". c #000000",
"G c #00E171",
"Y c #FFBB00",
"       ",
"       ",
"       ",
"       ",
"       ",
"       ",
"  .....",
"  .YYY.",
"  .YYY.",
"  .YYY.",
"  .....",
"  .....",
"  .GGG.",
"  .GGG.",
"  .GGG.",
"  .....",
"    .  ",
"  ....."};
