/* XPM */
static char* NQ_yy_S[] = {
"7 12 3 1",
"  c None",
". c #000000",
"Y c #FFBB00",
"  .....",
"    .  ",
"  .....",
"  .YYY.",
"  .YYY.",
"  .YYY.",
"  .....",
"  .....",
"  .YYY.",
"  .YYY.",
"  .YYY.",
"  ....."};
