/* XPM */
static char* NQ_yb_S[] = {
"7 12 4 1",
"  c None",
". c #000000",
"B c #666666",
"Y c #FFBB00",
"  .....",
"    .  ",
"  .....",
"  .BBB.",
"  .BBB.",
"  .BBB.",
"  .....",
"  .....",
"  .YYY.",
"  .YYY.",
"  .YYY.",
"  ....."};
