/* XPM */
static char* NQ_y_E[] = {
"9 7 3 1",
"  c none",
". c #000000",
"Y c #FFBB00",
"         ",
"         ",
".   .....",
".   .YYY.",
".....YYY.",
".   .YYY.",
".   ....."};
