/* XPM */
static char* TN_bg_E[] = {
"15 7 5 1",
"  c none",
". c #000000",
"B c #666666",
"G c #00E171",
"W c #CCCCCC",
"               ",
"               ",
".  .. ...  ... ",
". .W..GGG..BBB.",
"..WW..GGG..BBB.",
". .W..GGG..BBB.",
".  .. ...  ... "};
