/* XPM */
static char* TN_g_S[] = {
"7 10 4 1",
"  c None",
". c #000000",
"G c #00E171",
"W c #CCCCCC",
"  .....",
"    .  ",
"   .W. ",
"  .WWW.",
"  .....",
"   ... ",
"  .GGG.",
"  .GGG.",
"  .GGG.",
"   ... "};
