/* XPM */
static char* TN_r_W[] = {
"10 7 4 1",
"  c none",
". c #000000",
"R c #FF0000",
"W c #CCCCCC",
"          ",
"          ",
" ... ..  .",
".RRR..W. .",
".RRR..WW..",
".RRR..W. .",
" ... ..  ."};
