/* XPM */
static char* TN_rb_S[] = {
"7 15 5 1",
"  c None",
". c #000000",
"B c #666666",
"R c #FF0000",
"W c #CCCCCC",
"  .....",
"    .  ",
"   .W. ",
"  .WWW.",
"  .....",
"   ... ",
"  .BBB.",
"  .BBB.",
"  .BBB.",
"   ... ",
"   ... ",
"  .RRR.",
"  .RRR.",
"  .RRR.",
"   ... "};
