/* XPM */
static char* TN_rb_W[] = {
"15 7 5 1",
"  c none",
". c #000000",
"B c #666666",
"R c #FF0000",
"W c #CCCCCC",
"               ",
"               ",
" ...  ... ..  .",
".RRR..BBB..W. .",
".RRR..BBB..WW..",
".RRR..BBB..W. .",
" ...  ... ..  ."};
