/* XPM */
static char* TN_yy_W[] = {
"15 7 4 1",
"  c none",
". c #000000",
"Y c #FFBB00",
"W c #CCCCCC",
"               ",
"               ",
" ...  ... ..  .",
".YYY..YYY..W. .",
".YYY..YYY..WW..",
".YYY..YYY..W. .",
" ...  ... ..  ."};
