/* XPM */
static char* TN_yb_N[] = {
"7 18 5 1",
"  c None",
". c #000000",
"B c #666666",
"Y c #FFBB00",
"W c #CCCCCC",
"       ",
"       ",
"       ",
"   ... ",
"  .YYY.",
"  .YYY.",
"  .YYY.",
"   ... ",
"   ... ",
"  .BBB.",
"  .BBB.",
"  .BBB.",
"   ... ",
"  .....",
"  .WWW.",
"   .W. ",
"    .  ",
"  ....."};
