/* XPM */
static char* TN_yy_S[] = {
"7 15 4 1",
"  c None",
". c #000000",
"Y c #FFBB00",
"W c #CCCCCC",
"  .....",
"    .  ",
"   .W. ",
"  .WWW.",
"  .....",
"   ... ",
"  .YYY.",
"  .YYY.",
"  .YYY.",
"   ... ",
"   ... ",
"  .YYY.",
"  .YYY.",
"  .YYY.",
"   ... "};
