/* XPM */
static char* TN_y_N[] = {
"7 10 4 1",
"  c None",
". c #000000",
"Y c #FFBB00",
"W c #CCCCCC",
"   ... ",
"  .YYY.",
"  .YYY.",
"  .YYY.",
"   ... ",
"  .....",
"  .WWW.",
"   .W. ",
"    .  ",
"  ....."};
