/* XPM */
static char* TN_y_E[] = {
"10 7 4 1",
"  c none",
". c #000000",
"Y c #FFBB00",
"W c #CCCCCC",
"          ",
"          ",
".  .. ... ",
". .W..YYY.",
"..WW..YYY.",
". .W..YYY.",
".  .. ... "};
