/* XPM */
static char* TN_yy_N[] = {
"7 18 4 1",
"  c None",
". c #000000",
"Y c #FFBB00",
"W c #CCCCCC",
"       ",
"       ",
"       ",
"   ... ",
"  .YYY.",
"  .YYY.",
"  .YYY.",
"   ... ",
"   ... ",
"  .YYY.",
"  .YYY.",
"  .YYY.",
"   ... ",
"  .....",
"  .WWW.",
"   .W. ",
"    .  ",
"  ....."};
