/* XPM */
static char* TQ_b_W[] = {
"18 7 4 1",
"  c none",
". c #000000",
"B c #666666",
"W c #CCCCCC",
"                  ",
"                  ",
"        .......  .",
"        .BBB..W. .",
"        .BBB..WW..",
"        .BBB..W. .",
"        .......  ."};
