/* XPM */
static char* TQ_b_N[] = {
"7 18 4 1",
"  c None",
". c #000000",
"B c #666666",
"W c #CCCCCC",
"       ",
"       ",
"       ",
"       ",
"       ",
"       ",
"       ",
"       ",
"  .....",
"  .BBB.",
"  .BBB.",
"  .BBB.",
"  .....",
"  .....",
"  .WWW.",
"   .W. ",
"    .  ",
"  ....."};
