/* XPM */
static char* TQ_g_N[] = {
"7 10 4 1",
"  c None",
". c #000000",
"G c #00E171",
"W c #CCCCCC",
"  .....",
"  .GGG.",
"  .GGG.",
"  .GGG.",
"  .....",
"  .....",
"  .WWW.",
"   .W. ",
"    .  ",
"  ....."};
