/* XPM */
static char* TQ_r_S[] = {
"7 10 4 1",
"  c None",
". c #000000",
"R c #FF0000",
"W c #CCCCCC",
"  .....",
"    .  ",
"   .W. ",
"  .WWW.",
"  .....",
"  .....",
"  .RRR.",
"  .RRR.",
"  .RRR.",
"  ....."};
