/* XPM */
static char* TQ_r_E[] = {
"10 7 4 1",
"  c none",
". c #000000",
"R c #FF0000",
"W c #CCCCCC",
"          ",
"          ",
".  .......",
". .W..RRR.",
"..WW..RRR.",
". .W..RRR.",
".  ......."};
