/* XPM */
static char* TQ_y_W[] = {
"10 7 4 1",
"  c none",
". c #000000",
"Y c #FFBB00",
"W c #CCCCCC",
"          ",
"          ",
".......  .",
".YYY..W. .",
".YYY..WW..",
".YYY..W. .",
".......  ."};
