/* XPM */ 
static char* TR_E[] = {
"4 8 3 1",
" 	c None",
"!	c #000000",
"#	c #FF0000",
"    ",
"    ",
"!!!!",
"!!!!",
"!##!",
"!##!",
"!!!!",
"!!!!"};