/* XPM */ 
static char* TR_N[] = {
"8 9 3 1",
" 	c None",
"!	c #000000",
"#	c #FF0000",
"        ",
"        ",
"        ",
"        ",
"        ",
"  !!!!!!",
"  !!##!!",
"  !!##!!",
"  !!!!!!"};