/* XPM */ 
static char* TR_S[] = {
"8 4 3 1",
" 	c None",
"!	c #000000",
"#	c #FF0000",
"  !!!!!!",
"  !!##!!",
"  !!##!!",
"  !!!!!!"};