/* XPM */ 
static char* TR_W[] = {
"9 8 3 1",
" 	c None",
"!	c #000000",
"#	c #FF0000",
"         ",
"         ",
"     !!!!",
"     !!!!",
"     !##!",
"     !##!",
"     !!!!",
"     !!!!"};